<?xml version="1.0" encoding="utf-8"?>
<!-- Generator: Adobe Illustrator 19.0.0, SVG Export Plug-In . SVG Version: 6.00 Build 0)  -->
<svg version="1.1" id="Layer_1" xmlns="http://www.w3.org/2000/svg" xmlns:xlink="http://www.w3.org/1999/xlink" x="0px" y="0px"
	 width="24px" height="14px" viewBox="-293 390 24 14" style="enable-background:new -293 390 24 14;" xml:space="preserve">
<style type="text/css">
	.st0{fill:#006699;}
</style>
<title>Shape Copy</title>
<desc>Created with Sketch.</desc>
<g id="Website-Design-V2-4">
	<g id="Sokol-Centar-POČETNA-V2-4" transform="translate(-1416.000000, -3569.000000)">
		<path id="Shape-Copy" class="st0" d="M1123,3966.2c-0.1-0.4,0-0.8,0.3-1.2l5.2-5.6c0.3-0.4,0.8-0.5,1.2-0.4
			c0.4,0.1,0.8,0.5,0.9,0.9c0.1,0.5,0,0.9-0.3,1.3l-3.1,3.5h18.6c0.7,0,1.2,0.6,1.2,1.3c0,0.7-0.6,1.3-1.2,1.3H1127l3.5,3.3
			c0.4,0.3,0.6,0.8,0.5,1.3c-0.1,0.5-0.4,0.9-0.9,1s-1,0-1.3-0.4l-5.4-5.2C1123.1,3967.1,1123,3966.6,1123,3966.2L1123,3966.2z"/>
	</g>
</g>
</svg>
