<?xml version="1.0" encoding="utf-8"?>
<!-- Generator: Adobe Illustrator 19.0.0, SVG Export Plug-In . SVG Version: 6.00 Build 0)  -->
<svg version="1.1" id="Layer_1" xmlns="http://www.w3.org/2000/svg" xmlns:xlink="http://www.w3.org/1999/xlink" x="0px" y="0px"
	 width="24px" height="14px" viewBox="-293 390 24 14" style="enable-background:new -293 390 24 14;" xml:space="preserve">
<style type="text/css">
	.st0{fill:#006699;}
</style>
<title>Shape</title>
<desc>Created with Sketch.</desc>
<g id="Website-Design-V2-4">
	<g id="Sokol-Centar-POČETNA-V2-4" transform="translate(-1416.000000, -3504.000000)">
		<path id="Shape" class="st0" d="M1147,3901.2c0.1-0.4,0-0.8-0.3-1.2l-5.2-5.6c-0.3-0.4-0.8-0.5-1.2-0.4c-0.4,0.1-0.8,0.5-0.9,0.9
			c-0.1,0.5,0,0.9,0.3,1.3l3.1,3.5h-18.6c-0.7,0-1.2,0.6-1.2,1.3c0,0.7,0.6,1.3,1.2,1.3h18.8l-3.5,3.3c-0.4,0.3-0.6,0.8-0.5,1.3
			c0.1,0.5,0.4,0.9,0.9,1s1,0,1.3-0.4l5.4-5.2C1146.9,3902.1,1147,3901.6,1147,3901.2L1147,3901.2z"/>
	</g>
</g>
</svg>
