<?xml version="1.0" encoding="UTF-8"?>
<svg width="24px" height="14px" viewBox="0 0 24 14" version="1.1" xmlns="http://www.w3.org/2000/svg" xmlns:xlink="http://www.w3.org/1999/xlink">
    <!-- Generator: Sketch 52.4 (67378) - http://www.bohemiancoding.com/sketch -->
    <title>Shape Copy</title>
    <desc>Created with Sketch.</desc>
    <g id="Website-Design-V2-4" stroke="none" stroke-width="1" fill="none" fill-rule="evenodd">
        <g id="Sokol-Centar-POČETNA-V2-4" transform="translate(-1416.000000, -3569.000000)" fill="#CFCCC8">
            <path d="M1439.97434,3576.20682 C1440.0564,3575.79217 1439.93899,3575.36173 1439.66019,3575.05508 L1434.49331,3569.42628 C1434.18973,3569.07571 1433.72815,3568.92585 1433.28851,3569.03513 C1432.84887,3569.14442 1432.50078,3569.49554 1432.37994,3569.95161 C1432.2591,3570.40768 1432.38465,3570.8965 1432.70764,3571.22749 L1435.85737,3574.69137 L1417.24005,3574.69137 C1416.55519,3574.69137 1416,3575.27293 1416,3575.99033 C1416,3576.70772 1416.55519,3577.28928 1417.24005,3577.28928 L1436.01444,3577.28928 L1432.53403,3580.63193 C1432.1367,3580.91917 1431.93463,3581.42185 1432.01614,3581.92029 C1432.09764,3582.41874 1432.4479,3582.82232 1432.91384,3582.95467 C1433.37978,3583.08703 1433.8767,3582.92409 1434.18743,3582.53706 L1439.56099,3577.34124 C1439.87316,3577.06073 1440.0287,3576.63387 1439.97434,3576.20682 L1439.97434,3576.20682 Z" id="Shape-Copy" transform="translate(1428.000000, 3576.000000) scale(-1, 1) translate(-1428.000000, -3576.000000) "></path>
        </g>
    </g>
</svg>